HIERARCHY
ROOT Hips
{
	OFFSET 0.000000 35.082581 0.000000
	CHANNELS 6 Xposition Yposition Zposition Xrotation Yrotation Zrotation 
	JOINT Spine
	{
		OFFSET 0.000000 6.876099 0.125700
		CHANNELS 3 Xrotation Yrotation Zrotation
		JOINT Spine1
		{
			OFFSET 0.000000 5.730043 0.104720
			CHANNELS 3 Xrotation Yrotation Zrotation
			JOINT Spine1_split
			{
				OFFSET 0.000000 5.730043 0.104720
				CHANNELS 3 Xrotation Yrotation Zrotation
				JOINT Spine2
				{
					OFFSET 0.000000 5.730043 0.104720
					CHANNELS 3 Xrotation Yrotation Zrotation
					JOINT Neck
					{
						OFFSET 0.000000 10.314075 0.188496
						CHANNELS 3 Xrotation Yrotation Zrotation
						JOINT Head
						{
							OFFSET 0.000000 7.643700 -2.377400
							CHANNELS 3 Xrotation Yrotation Zrotation
							JOINT HeadTop_End
							{
								OFFSET 0.000000 43.788605 -13.619600
								CHANNELS 3 Xrotation Yrotation Zrotation
								End Site
								{
									OFFSET 0.000000 0.000000 0.000000
								}
							}
						}
					}
					JOINT LeftShoulder
					{
						OFFSET 2.196100 4.412489 0.087492
						CHANNELS 3 Xrotation Yrotation Zrotation
						JOINT LeftShoulder_split
						{
							OFFSET 2.196100 4.412489 0.087492
							CHANNELS 3 Xrotation Yrotation Zrotation
							JOINT LeftArm
							{
								OFFSET 8.771219 -2.981674 -0.026999
								CHANNELS 3 Xrotation Yrotation Zrotation
								JOINT LeftForeArm
								{
									OFFSET 8.512804 0.000000 -0.000000
									CHANNELS 3 Xrotation Yrotation Zrotation
									JOINT LeftHand
									{
										OFFSET 18.484802 0.000000 -0.000000
										CHANNELS 3 Xrotation Yrotation Zrotation
										JOINT LeftHandThumb1
										{
											OFFSET 2.499420 -1.158070 2.653252
											CHANNELS 3 Xrotation Yrotation Zrotation
											JOINT LeftHandThumb2
											{
												OFFSET 2.370079 -1.368366 1.368366
												CHANNELS 3 Xrotation Yrotation Zrotation
												JOINT LeftHandThumb3
												{
													OFFSET 2.676727 -1.545410 1.545409
													CHANNELS 3 Xrotation Yrotation Zrotation
													JOINT LeftHandThumb4
													{
														OFFSET 1.692226 -0.977005 0.977007
														CHANNELS 3 Xrotation Yrotation Zrotation
														End Site
														{
															OFFSET 0.000000 0.000000 0.000000
														}
													}
												}
											}
										}
										JOINT LeftHandIndex1
										{
											OFFSET 7.924831 -0.457527 2.345128
											CHANNELS 3 Xrotation Yrotation Zrotation
											JOINT LeftHandIndex2
											{
												OFFSET 3.643303 0.000000 0.000000
												CHANNELS 3 Xrotation Yrotation Zrotation
												JOINT LeftHandIndex3
												{
													OFFSET 3.810799 0.000000 0.000000
													CHANNELS 3 Xrotation Yrotation Zrotation
													JOINT LeftHandIndex4
													{
														OFFSET 2.403702 0.000000 0.000000
														CHANNELS 3 Xrotation Yrotation Zrotation
														End Site
														{
															OFFSET 0.000000 0.000000 0.000000
														}
													}
												}
											}
										}
										JOINT LeftHandMiddle1
										{
											OFFSET 8.563995 0.000000 -0.000000
											CHANNELS 3 Xrotation Yrotation Zrotation
											JOINT LeftHandMiddle2
											{
												OFFSET 3.861618 0.000000 0.000000
												CHANNELS 3 Xrotation Yrotation Zrotation
												JOINT LeftHandMiddle3
												{
													OFFSET 3.701603 0.000000 0.000000
													CHANNELS 3 Xrotation Yrotation Zrotation
													JOINT LeftHandMiddle4
													{
														OFFSET 2.322544 0.000000 0.000000
														CHANNELS 3 Xrotation Yrotation Zrotation
														End Site
														{
															OFFSET 0.000000 0.000000 0.000000
														}
													}
												}
											}
										}
										JOINT LeftHandRing1
										{
											OFFSET 8.426460 -0.424637 -3.286992
											CHANNELS 3 Xrotation Yrotation Zrotation
											JOINT LeftHandRing2
											{
												OFFSET 3.126408 0.000000 0.000000
												CHANNELS 3 Xrotation Yrotation Zrotation
												JOINT LeftHandRing3
												{
													OFFSET 3.085026 0.000000 0.000000
													CHANNELS 3 Xrotation Yrotation Zrotation
													JOINT LeftHandRing4
													{
														OFFSET 1.644005 0.000000 0.000000
														CHANNELS 3 Xrotation Yrotation Zrotation
														End Site
														{
															OFFSET 0.000000 0.000000 0.000000
														}
													}
												}
											}
										}
									}
								}
							}
						}
					}
					JOINT RightShoulder
					{
						OFFSET -2.196100 4.412496 0.070690
						CHANNELS 3 Xrotation Yrotation Zrotation
						JOINT RightShoulder_split
						{
							OFFSET -2.196100 4.412496 0.070690
							CHANNELS 3 Xrotation Yrotation Zrotation
							JOINT RightArm
							{
								OFFSET -8.771282 -2.981682 -0.094208
								CHANNELS 3 Xrotation Yrotation Zrotation
								JOINT RightForeArm
								{
									OFFSET -8.494598 0.000000 0.000000
									CHANNELS 3 Xrotation Yrotation Zrotation
									JOINT RightHand
									{
										OFFSET -18.483803 0.000000 0.000001
										CHANNELS 3 Xrotation Yrotation Zrotation
										JOINT RightHandThumb1
										{
											OFFSET -2.527351 -1.008072 2.575253
											CHANNELS 3 Xrotation Yrotation Zrotation
											JOINT RightHandThumb2
											{
												OFFSET -2.321518 -1.340328 1.340329
												CHANNELS 3 Xrotation Yrotation Zrotation
												JOINT RightHandThumb3
												{
													OFFSET -2.657753 -1.534454 1.534455
													CHANNELS 3 Xrotation Yrotation Zrotation
													JOINT RightHandThumb4
													{
														OFFSET -1.807510 -1.043568 1.043567
														CHANNELS 3 Xrotation Yrotation Zrotation
														End Site
														{
															OFFSET 0.000000 0.000000 0.000000
														}
													}
												}
											}
										}
										JOINT RightHandIndex1
										{
											OFFSET -8.811420 0.015533 2.887987
											CHANNELS 3 Xrotation Yrotation Zrotation
											JOINT RightHandIndex2
											{
												OFFSET -3.537502 0.000000 0.000000
												CHANNELS 3 Xrotation Yrotation Zrotation
												JOINT RightHandIndex3
												{
													OFFSET -3.356201 0.000000 0.000000
													CHANNELS 3 Xrotation Yrotation Zrotation
													JOINT RightHandIndex4
													{
														OFFSET -1.933098 0.000000 0.000000
														CHANNELS 3 Xrotation Yrotation Zrotation
														End Site
														{
															OFFSET 0.000000 0.000000 0.000000
														}
													}
												}
											}
										}
										JOINT RightHandMiddle1
										{
											OFFSET -8.178135 0.000000 0.000000
											CHANNELS 3 Xrotation Yrotation Zrotation
											JOINT RightHandMiddle2
											{
												OFFSET -3.901302 0.000000 0.000000
												CHANNELS 3 Xrotation Yrotation Zrotation
												JOINT RightHandMiddle3
												{
													OFFSET -3.909599 0.000000 0.000000
													CHANNELS 3 Xrotation Yrotation Zrotation
													JOINT RightHandMiddle4
													{
														OFFSET -2.376003 0.000000 0.000000
														CHANNELS 3 Xrotation Yrotation Zrotation
														End Site
														{
															OFFSET 0.000000 0.000000 0.000000
														}
													}
												}
											}
										}
										JOINT RightHandRing1
										{
											OFFSET -7.559013 0.014137 -2.865403
											CHANNELS 3 Xrotation Yrotation Zrotation
											JOINT RightHandRing2
											{
												OFFSET -3.449306 0.000000 0.000000
												CHANNELS 3 Xrotation Yrotation Zrotation
												JOINT RightHandRing3
												{
													OFFSET -3.362106 0.000000 0.000000
													CHANNELS 3 Xrotation Yrotation Zrotation
													JOINT RightHandRing4
													{
														OFFSET -2.076401 0.000000 0.000000
														CHANNELS 3 Xrotation Yrotation Zrotation
														End Site
														{
															OFFSET 0.000000 0.000000 0.000000
														}
													}
												}
											}
										}
									}
								}
							}
						}
					}
				}
			}
		}
	}
	JOINT LeftUpLeg
	{
		OFFSET 10.205400 -3.823500 0.155100
		CHANNELS 3 Xrotation Yrotation Zrotation
		JOINT LeftLeg
		{
			OFFSET 0.708757 -12.982077 0.567790
			CHANNELS 3 Xrotation Yrotation Zrotation
			JOINT LeftFoot
			{
				OFFSET -0.708756 -10.717838 -2.184338
				CHANNELS 3 Xrotation Yrotation Zrotation
				JOINT LeftToeBase
				{
					OFFSET 0.108149 -7.191104 7.560241
					CHANNELS 3 Xrotation Yrotation Zrotation
					JOINT LeftToe_End
					{
						OFFSET 0.070230 0.081724 4.490308
						CHANNELS 3 Xrotation Yrotation Zrotation
						End Site
						{
							OFFSET 0.000000 0.000000 0.000000
						}
					}
				}
			}
		}
	}
	JOINT RightUpLeg
	{
		OFFSET -10.205400 -3.823500 0.005500
		CHANNELS 3 Xrotation Yrotation Zrotation
		JOINT RightLeg
		{
			OFFSET -0.708756 -12.982134 0.610632
			CHANNELS 3 Xrotation Yrotation Zrotation
			JOINT RightFoot
			{
				OFFSET 0.708754 -10.717769 -1.945823
				CHANNELS 3 Xrotation Yrotation Zrotation
				JOINT RightToeBase
				{
					OFFSET -0.108140 -7.191069 7.372968
					CHANNELS 3 Xrotation Yrotation Zrotation
					JOINT RightToe_End
					{
						OFFSET -0.070227 0.081735 4.479403
						CHANNELS 3 Xrotation Yrotation Zrotation
						End Site
						{
							OFFSET 0.000000 0.000000 0.000000
						}
					}
				}
			}
		}
	}
}
MOTION
Frames: 4
Frame Time: 0.016667
0.645652 34.073586 -0.613459 -4.058087 6.132829 -1.651671 4.903716 -0.329128 1.106450 5.814413 -0.121247 1.891503 0.000000 0.000000 0.000000 -4.300226 -0.608021 -1.115061 1.348864 -1.122446 0.966616 4.180612 -0.441330 -1.260351 0.000001 0.000000 -0.000000 1.687378 -7.781277 -3.495003 0.000000 0.000000 0.000000 -0.671931 -2.004015 -76.954225 6.346070 -10.905889 1.751800 -0.215909 -0.743849 3.407687 -3.786639 8.458001 12.355391 7.478450 11.594940 -1.281173 1.099781 8.860681 5.173500 0.000001 -0.000001 -0.000002 2.378716 3.620428 -6.815226 0.000187 0.249696 -17.103504 0.030327 0.177343 -12.954582 0.000000 0.000001 0.000002 -1.935731 5.644664 -11.386953 0.106892 0.707438 -24.767388 0.016771 0.019719 -9.474775 0.000001 0.000000 -0.000001 -4.873108 10.020045 -7.875469 -0.020634 0.335914 -30.084740 0.121662 0.713925 -12.603121 0.000000 0.000001 0.000000 2.088914 10.213791 4.097136 0.000000 0.000000 0.000000 1.436095 3.709012 75.271806 15.720263 15.338547 -4.555617 -4.674565 -0.553311 -0.689852 -0.464239 -8.992508 -6.084871 7.449376 -11.614436 1.291261 1.128411 -8.847604 -5.184704 0.000005 -0.000000 0.000001 2.362070 -3.634244 8.333118 0.014188 -0.252984 18.622478 0.018945 -0.182392 14.473410 -0.000002 -0.000001 0.000000 -1.983687 -5.671334 13.530164 0.119635 -0.656151 26.914140 0.016208 -0.036402 11.621543 0.000001 0.000001 0.000005 -4.977996 -10.100878 10.695798 -0.012079 -0.340803 32.924039 0.105485 -0.698166 15.440829 0.000002 0.000001 0.000002 -7.806845 9.283539 13.902373 22.425231 -7.834857 -1.111493 -11.884557 1.705968 -7.025740 -0.000190 0.000008 0.000013 0.000000 -0.000001 0.000000 -5.012955 -5.584034 -0.883535 16.516267 3.938895 0.134308 -7.415212 -0.495039 1.427719 -0.001310 -0.000000 0.000001 0.000000 -0.000001 0.000000 
0.647093 34.068375 -0.602721 -4.047293 5.919698 -1.678578 5.236721 -0.302167 1.068098 5.633653 -0.121061 1.918716 0.000000 0.000000 0.000000 -4.352964 -0.591954 -1.049514 1.377147 -1.090219 0.931312 3.936334 -0.412710 -1.296462 -0.000000 -0.000000 0.000000 1.651270 -7.731104 -3.681444 0.000000 0.000000 0.000000 -0.695466 -2.100480 -76.810948 6.241785 -10.917065 1.584188 -0.232987 -0.585452 3.802323 -3.785237 8.454634 12.355342 7.482390 11.596703 -1.286039 1.098175 8.860595 5.176400 -0.000003 -0.000002 -0.000000 2.379201 3.629050 -6.788377 0.000119 0.249691 -17.091022 0.030261 0.177354 -12.939056 0.000001 0.000001 0.000002 -1.939384 5.657832 -11.364467 0.106872 0.707410 -24.761679 0.016713 0.019631 -9.457720 -0.000001 0.000001 0.000002 -4.878434 10.039906 -7.848570 -0.020609 0.335916 -30.084723 0.121514 0.713835 -12.587870 0.000000 -0.000000 -0.000001 2.064665 10.089340 4.140847 0.000000 0.000000 0.000000 1.630627 4.074587 75.042114 15.586970 15.435712 -4.453111 -5.016203 -0.489166 -0.883018 -0.464715 -9.050168 -6.077174 7.438697 -11.615236 1.273099 1.122876 -8.803512 -5.159481 -0.000001 -0.000003 -0.000001 2.380988 -3.625721 8.514084 0.014273 -0.253019 18.699455 0.019277 -0.182422 14.569562 -0.000001 0.000000 0.000001 -1.956569 -5.652403 13.660333 0.119703 -0.656252 26.931485 0.016597 -0.036855 11.715596 0.000001 0.000002 0.000001 -4.927671 -10.055883 10.840811 -0.012119 -0.340701 32.907739 0.106191 -0.698475 15.512613 -0.000001 -0.000001 -0.000000 -7.688256 9.387868 13.980638 22.439716 -7.748264 -1.181560 -12.025203 1.717760 -7.028240 -0.048087 -0.042898 0.055456 -0.000000 -0.000000 -0.000000 -5.132920 -5.617623 -0.902450 16.569040 4.179009 0.218379 -7.364443 -0.474912 1.330516 0.000017 0.002915 0.000003 0.000000 -0.000000 -0.000000 
0.647792 34.062359 -0.587532 -3.953497 5.733711 -1.710069 5.416166 -0.307296 1.086388 5.522216 -0.132479 1.904806 0.000000 0.000000 0.000000 -4.333487 -0.594682 -1.023815 1.247722 -1.042279 0.952613 3.900948 -0.349568 -1.362773 -0.000001 -0.000000 0.000000 1.620305 -7.552169 -3.860848 0.000000 0.000000 0.000000 -0.751198 -2.300621 -76.607156 6.273871 -11.004183 1.438923 -0.243642 -0.478229 4.018961 -3.781387 8.444581 12.355064 7.491349 11.602872 -1.294914 1.093867 8.860345 5.184084 -0.000000 -0.000004 0.000001 2.378267 3.651467 -6.736833 0.000132 0.249666 -17.072077 0.030153 0.177337 -12.911871 -0.000000 -0.000000 -0.000000 -1.949744 5.684355 -11.316855 0.106866 0.707402 -24.756625 0.016566 0.019419 -9.420237 0.000001 0.000000 0.000001 -4.898114 10.077522 -7.782052 -0.020644 0.335927 -30.084719 0.121191 0.713694 -12.551523 0.000001 0.000000 0.000002 1.990171 10.065649 4.383190 0.000000 0.000000 0.000000 2.016836 4.166804 74.641919 15.644902 15.971457 -4.499043 -5.149053 -0.647287 -1.037960 -0.465263 -9.107751 -6.069204 7.427810 -11.616020 1.254601 1.114828 -8.760910 -5.132271 0.000003 -0.000002 -0.000000 2.399825 -3.617035 8.697704 0.014317 -0.253100 18.778316 0.019659 -0.182446 14.667553 0.000002 0.000000 0.000002 -1.929487 -5.635142 13.790700 0.119795 -0.656311 26.948931 0.016984 -0.037334 11.809882 0.000000 0.000001 0.000004 -4.877843 -10.011680 10.983902 -0.012111 -0.340588 32.890059 0.106787 -0.698737 15.583042 -0.000000 0.000002 -0.000001 -7.676938 9.422721 14.029509 22.492844 -7.621460 -1.216972 -12.166694 1.733948 -7.053969 -0.086884 -0.067613 0.100256 0.000000 0.000000 0.000000 -5.370125 -5.602883 -0.900309 16.663280 4.416292 0.258925 -7.320603 -0.456876 1.258753 -0.062520 -0.102870 0.024833 0.000000 -0.000000 -0.000000 
0.643672 34.054371 -0.574076 -3.897743 5.531580 -1.751595 5.796924 -0.314205 1.022102 5.242577 -0.156767 1.980718 0.000000 0.000000 0.000000 -4.477637 -0.616530 -0.907269 1.569828 -0.951847 0.854657 3.456798 -0.286825 -1.374109 -0.000000 0.000000 -0.000000 1.575132 -7.497805 -4.111595 0.000000 0.000000 0.000000 -0.649930 -2.291430 -76.423260 6.332379 -11.136892 1.329733 -0.228602 -0.569916 4.292996 -3.777151 8.428095 12.358923 7.504812 11.613074 -1.307488 1.087087 8.859918 5.196238 -0.000003 0.000001 -0.000009 2.372278 3.686791 -6.663260 0.000114 0.249627 -17.048062 0.030004 0.177353 -12.874280 0.000001 -0.000000 -0.000002 -1.965971 5.722488 -11.247136 0.106852 0.707384 -24.752409 0.016353 0.019131 -9.364703 -0.000000 0.000000 0.000002 -4.930802 10.130578 -7.680379 -0.020612 0.335939 -30.088305 0.120683 0.713445 -12.496598 0.000000 -0.000000 0.000003 1.992634 10.037302 4.259004 0.000000 0.000000 0.000000 2.129314 4.477130 74.585727 15.564229 15.783213 -4.347653 -5.452095 -0.363447 -1.427773 -0.465844 -9.165416 -6.061389 7.416895 -11.616830 1.236006 1.107074 -8.718350 -5.104527 -0.000001 -0.000002 -0.000000 2.418922 -3.608132 8.883903 0.014415 -0.253169 18.859047 0.020061 -0.182460 14.767241 -0.000002 0.000001 0.000003 -1.902497 -5.619329 13.921307 0.119940 -0.656340 26.966572 0.017325 -0.037822 11.904237 0.000001 -0.000001 0.000001 -4.828679 -9.968014 11.124723 -0.012137 -0.340465 32.871450 0.107480 -0.699014 15.652326 0.000001 -0.000001 -0.000001 -7.647472 9.508523 14.139641 22.569891 -7.550625 -1.289510 -12.328991 1.746574 -7.064347 -0.103385 -0.105179 0.119234 0.000000 0.000000 -0.000000 -5.518982 -5.579690 -0.879000 16.737935 4.547374 0.329467 -7.303376 -0.441030 1.169388 -0.013936 -0.038571 -0.009522 0.000000 0.000000 -0.000000 
